# xmcd
#
# Track frame offsets:
#	150
#	15677
#	37507
#	61830
#
# Disc length: 1085 seconds
#
# Revision: 1
# Processed by: cddbd v1.5.2PL0 Copyright (c) Steve Scherf et al.
# Submitted via: audiograbber 1.83.01
#
DISCID=20043b04
DTITLE=Ann Bell Fell - Around And 'Round [CDM)
DYEAR=1996
DGENRE=Dance
TTITLE0=Around And 'Round (Radio Edit)
TTITLE1=Around And 'Round (Club Extended)
TTITLE2=Around And 'Round (Rake's Revelation: Conversion X-Perience)
TTITLE3=Around And 'Round (The Sir Family House Mix)
EXTD=TR.
EXTT0=
EXTT1=
EXTT2=
EXTT3=
PLAYORDER=
